<svg id="visual" viewBox="0 0 900 600" width="900" height="600" xmlns="http://www.w3.org/2000/svg" xmlns:xlink="http://www.w3.org/1999/xlink" version="1.1"><rect x="0" y="0" width="900" height="600" fill="#0093ff"></rect><path d="M0 428L129 388L257 414L386 354L514 351L643 377L771 433L900 442L900 601L771 601L643 601L514 601L386 601L257 601L129 601L0 601Z" fill="#4facf7"></path><path d="M0 476L129 462L257 397L386 441L514 447L643 441L771 413L900 405L900 601L771 601L643 601L514 601L386 601L257 601L129 601L0 601Z" fill="#3d97da"></path><path d="M0 482L129 448L257 450L386 441L514 447L643 443L771 464L900 511L900 601L771 601L643 601L514 601L386 601L257 601L129 601L0 601Z" fill="#2b82bd"></path><path d="M0 524L129 495L257 503L386 487L514 540L643 494L771 511L900 542L900 601L771 601L643 601L514 601L386 601L257 601L129 601L0 601Z" fill="#186ea2"></path><path d="M0 536L129 550L257 559L386 556L514 552L643 528L771 558L900 541L900 601L771 601L643 601L514 601L386 601L257 601L129 601L0 601Z" fill="#005a87"></path></svg>