<svg id="visual" viewBox="0 0 900 600" width="900" height="600" xmlns="http://www.w3.org/2000/svg" xmlns:xlink="http://www.w3.org/1999/xlink" version="1.1"><path d="M0 103L13.7 103C27.3 103 54.7 103 82 97C109.3 91 136.7 79 163.8 75C191 71 218 75 245.2 75C272.3 75 299.7 71 327 66C354.3 61 381.7 55 409 57C436.3 59 463.7 69 491 78C518.3 87 545.7 95 573 94C600.3 93 627.7 83 654.8 75C682 67 709 61 736.2 63C763.3 65 790.7 75 818 75C845.3 75 872.7 65 886.3 60L900 55L900 0L886.3 0C872.7 0 845.3 0 818 0C790.7 0 763.3 0 736.2 0C709 0 682 0 654.8 0C627.7 0 600.3 0 573 0C545.7 0 518.3 0 491 0C463.7 0 436.3 0 409 0C381.7 0 354.3 0 327 0C299.7 0 272.3 0 245.2 0C218 0 191 0 163.8 0C136.7 0 109.3 0 82 0C54.7 0 27.3 0 13.7 0L0 0Z" fill="#6198ff"></path><path d="M0 229L13.7 235C27.3 241 54.7 253 82 246C109.3 239 136.7 213 163.8 214C191 215 218 243 245.2 260C272.3 277 299.7 283 327 266C354.3 249 381.7 209 409 221C436.3 233 463.7 297 491 301C518.3 305 545.7 249 573 216C600.3 183 627.7 173 654.8 188C682 203 709 243 736.2 279C763.3 315 790.7 347 818 335C845.3 323 872.7 267 886.3 239L900 211L900 53L886.3 58C872.7 63 845.3 73 818 73C790.7 73 763.3 63 736.2 61C709 59 682 65 654.8 73C627.7 81 600.3 91 573 92C545.7 93 518.3 85 491 76C463.7 67 436.3 57 409 55C381.7 53 354.3 59 327 64C299.7 69 272.3 73 245.2 73C218 73 191 69 163.8 73C136.7 77 109.3 89 82 95C54.7 101 27.3 101 13.7 101L0 101Z" fill="#3c80ff"></path><path d="M0 319L13.7 333C27.3 347 54.7 375 82 378C109.3 381 136.7 359 163.8 362C191 365 218 393 245.2 412C272.3 431 299.7 441 327 422C354.3 403 381.7 355 409 348C436.3 341 463.7 375 491 374C518.3 373 545.7 337 573 309C600.3 281 627.7 261 654.8 277C682 293 709 345 736.2 377C763.3 409 790.7 421 818 403C845.3 385 872.7 337 886.3 313L900 289L900 209L886.3 237C872.7 265 845.3 321 818 333C790.7 345 763.3 313 736.2 277C709 241 682 201 654.8 186C627.7 171 600.3 181 573 214C545.7 247 518.3 303 491 299C463.7 295 436.3 231 409 219C381.7 207 354.3 247 327 264C299.7 281 272.3 275 245.2 258C218 241 191 213 163.8 212C136.7 211 109.3 237 82 244C54.7 251 27.3 239 13.7 233L0 227Z" fill="#0066ff"></path><path d="M0 487L13.7 487C27.3 487 54.7 487 82 490C109.3 493 136.7 499 163.8 505C191 511 218 517 245.2 525C272.3 533 299.7 543 327 541C354.3 539 381.7 525 409 517C436.3 509 463.7 507 491 512C518.3 517 545.7 529 573 525C600.3 521 627.7 501 654.8 494C682 487 709 493 736.2 503C763.3 513 790.7 527 818 535C845.3 543 872.7 545 886.3 546L900 547L900 287L886.3 311C872.7 335 845.3 383 818 401C790.7 419 763.3 407 736.2 375C709 343 682 291 654.8 275C627.7 259 600.3 279 573 307C545.7 335 518.3 371 491 372C463.7 373 436.3 339 409 346C381.7 353 354.3 401 327 420C299.7 439 272.3 429 245.2 410C218 391 191 363 163.8 360C136.7 357 109.3 379 82 376C54.7 373 27.3 345 13.7 331L0 317Z" fill="#0059dd"></path><path d="M0 601L13.7 601C27.3 601 54.7 601 82 601C109.3 601 136.7 601 163.8 601C191 601 218 601 245.2 601C272.3 601 299.7 601 327 601C354.3 601 381.7 601 409 601C436.3 601 463.7 601 491 601C518.3 601 545.7 601 573 601C600.3 601 627.7 601 654.8 601C682 601 709 601 736.2 601C763.3 601 790.7 601 818 601C845.3 601 872.7 601 886.3 601L900 601L900 545L886.3 544C872.7 543 845.3 541 818 533C790.7 525 763.3 511 736.2 501C709 491 682 485 654.8 492C627.7 499 600.3 519 573 523C545.7 527 518.3 515 491 510C463.7 505 436.3 507 409 515C381.7 523 354.3 537 327 539C299.7 541 272.3 531 245.2 523C218 515 191 509 163.8 503C136.7 497 109.3 491 82 488C54.7 485 27.3 485 13.7 485L0 485Z" fill="#004cbb"></path></svg>