<svg id="visual" viewBox="0 0 900 600" width="900" height="600" xmlns="http://www.w3.org/2000/svg" xmlns:xlink="http://www.w3.org/1999/xlink" version="1.1"><rect x="0" y="0" width="900" height="600" fill="#0066FF"></rect><path d="M0 440L129 441L257 354L386 381L514 384L643 378L771 416L900 409L900 601L771 601L643 601L514 601L386 601L257 601L129 601L0 601Z" fill="#4facf7"></path><path d="M0 480L129 432L257 414L386 445L514 474L643 421L771 472L900 450L900 601L771 601L643 601L514 601L386 601L257 601L129 601L0 601Z" fill="#3d97da"></path><path d="M0 487L129 486L257 497L386 446L514 452L643 464L771 443L900 510L900 601L771 601L643 601L514 601L386 601L257 601L129 601L0 601Z" fill="#2b82bd"></path><path d="M0 537L129 511L257 483L386 532L514 500L643 525L771 527L900 509L900 601L771 601L643 601L514 601L386 601L257 601L129 601L0 601Z" fill="#186ea2"></path><path d="M0 554L129 550L257 539L386 556L514 574L643 549L771 562L900 538L900 601L771 601L643 601L514 601L386 601L257 601L129 601L0 601Z" fill="#005a87"></path></svg>