<svg id="visual" viewBox="0 0 900 600" width="900" height="600" xmlns="http://www.w3.org/2000/svg" xmlns:xlink="http://www.w3.org/1999/xlink" version="1.1"><rect x="0" y="0" width="900" height="600" fill="#002233"></rect><path d="M0 366L21.5 375.8C43 385.7 86 405.3 128.8 407C171.7 408.7 214.3 392.3 257.2 386.2C300 380 343 384 385.8 395.3C428.7 406.7 471.3 425.3 514.2 419.3C557 413.3 600 382.7 642.8 373.8C685.7 365 728.3 378 771.2 384.3C814 390.7 857 390.3 878.5 390.2L900 390L900 601L878.5 601C857 601 814 601 771.2 601C728.3 601 685.7 601 642.8 601C600 601 557 601 514.2 601C471.3 601 428.7 601 385.8 601C343 601 300 601 257.2 601C214.3 601 171.7 601 128.8 601C86 601 43 601 21.5 601L0 601Z" fill="#fa7268"></path><path d="M0 405L21.5 411.3C43 417.7 86 430.3 128.8 429.2C171.7 428 214.3 413 257.2 411.2C300 409.3 343 420.7 385.8 427.8C428.7 435 471.3 438 514.2 444.3C557 450.7 600 460.3 642.8 464.7C685.7 469 728.3 468 771.2 461.3C814 454.7 857 442.3 878.5 436.2L900 430L900 601L878.5 601C857 601 814 601 771.2 601C728.3 601 685.7 601 642.8 601C600 601 557 601 514.2 601C471.3 601 428.7 601 385.8 601C343 601 300 601 257.2 601C214.3 601 171.7 601 128.8 601C86 601 43 601 21.5 601L0 601Z" fill="#ef5f67"></path><path d="M0 502L21.5 500.7C43 499.3 86 496.7 128.8 493.2C171.7 489.7 214.3 485.3 257.2 480.5C300 475.7 343 470.3 385.8 464.2C428.7 458 471.3 451 514.2 448.5C557 446 600 448 642.8 447.7C685.7 447.3 728.3 444.7 771.2 447.3C814 450 857 458 878.5 462L900 466L900 601L878.5 601C857 601 814 601 771.2 601C728.3 601 685.7 601 642.8 601C600 601 557 601 514.2 601C471.3 601 428.7 601 385.8 601C343 601 300 601 257.2 601C214.3 601 171.7 601 128.8 601C86 601 43 601 21.5 601L0 601Z" fill="#e34c67"></path><path d="M0 483L21.5 491.7C43 500.3 86 517.7 128.8 526.5C171.7 535.3 214.3 535.7 257.2 536.2C300 536.7 343 537.3 385.8 535.3C428.7 533.3 471.3 528.7 514.2 527.8C557 527 600 530 642.8 524.8C685.7 519.7 728.3 506.3 771.2 503.2C814 500 857 507 878.5 510.5L900 514L900 601L878.5 601C857 601 814 601 771.2 601C728.3 601 685.7 601 642.8 601C600 601 557 601 514.2 601C471.3 601 428.7 601 385.8 601C343 601 300 601 257.2 601C214.3 601 171.7 601 128.8 601C86 601 43 601 21.5 601L0 601Z" fill="#d53867"></path><path d="M0 545L21.5 547.5C43 550 86 555 128.8 552C171.7 549 214.3 538 257.2 540.2C300 542.3 343 557.7 385.8 558.8C428.7 560 471.3 547 514.2 545.7C557 544.3 600 554.7 642.8 556C685.7 557.3 728.3 549.7 771.2 550.5C814 551.3 857 560.7 878.5 565.3L900 570L900 601L878.5 601C857 601 814 601 771.2 601C728.3 601 685.7 601 642.8 601C600 601 557 601 514.2 601C471.3 601 428.7 601 385.8 601C343 601 300 601 257.2 601C214.3 601 171.7 601 128.8 601C86 601 43 601 21.5 601L0 601Z" fill="#c62368"></path></svg>