<svg id="visual" viewBox="0 0 900 600" width="900" height="600" xmlns="http://www.w3.org/2000/svg" xmlns:xlink="http://www.w3.org/1999/xlink" version="1.1"><path d="M0 97L69 97L69 103L138 103L138 145L208 145L208 133L277 133L277 115L346 115L346 133L415 133L415 115L485 115L485 127L554 127L554 127L623 127L623 73L692 73L692 97L762 97L762 97L831 97L831 133L900 133L900 73L900 0L900 0L831 0L831 0L762 0L762 0L692 0L692 0L623 0L623 0L554 0L554 0L485 0L485 0L415 0L415 0L346 0L346 0L277 0L277 0L208 0L208 0L138 0L138 0L69 0L69 0L0 0Z" fill="#0066ff"></path><path d="M0 271L69 271L69 259L138 259L138 319L208 319L208 277L277 277L277 223L346 223L346 289L415 289L415 307L485 307L485 349L554 349L554 313L623 313L623 211L692 211L692 283L762 283L762 241L831 241L831 319L900 319L900 223L900 71L900 131L831 131L831 95L762 95L762 95L692 95L692 71L623 71L623 125L554 125L554 125L485 125L485 113L415 113L415 131L346 131L346 113L277 113L277 131L208 131L208 143L138 143L138 101L69 101L69 95L0 95Z" fill="#005acc"></path><path d="M0 331L69 331L69 367L138 367L138 385L208 385L208 385L277 385L277 307L346 307L346 385L415 385L415 379L485 379L485 415L554 415L554 385L623 385L623 319L692 319L692 391L762 391L762 331L831 331L831 391L900 391L900 295L900 221L900 317L831 317L831 239L762 239L762 281L692 281L692 209L623 209L623 311L554 311L554 347L485 347L485 305L415 305L415 287L346 287L346 221L277 221L277 275L208 275L208 317L138 317L138 257L69 257L69 269L0 269Z" fill="#004b99"></path><path d="M0 547L69 547L69 547L138 547L138 529L208 529L208 541L277 541L277 523L346 523L346 523L415 523L415 535L485 535L485 553L554 553L554 517L623 517L623 553L692 553L692 541L762 541L762 511L831 511L831 529L900 529L900 511L900 293L900 389L831 389L831 329L762 329L762 389L692 389L692 317L623 317L623 383L554 383L554 413L485 413L485 377L415 377L415 383L346 383L346 305L277 305L277 383L208 383L208 383L138 383L138 365L69 365L69 329L0 329Z" fill="#003865"></path><path d="M0 601L69 601L69 601L138 601L138 601L208 601L208 601L277 601L277 601L346 601L346 601L415 601L415 601L485 601L485 601L554 601L554 601L623 601L623 601L692 601L692 601L762 601L762 601L831 601L831 601L900 601L900 601L900 509L900 527L831 527L831 509L762 509L762 539L692 539L692 551L623 551L623 515L554 515L554 551L485 551L485 533L415 533L415 521L346 521L346 521L277 521L277 539L208 539L208 527L138 527L138 545L69 545L69 545L0 545Z" fill="#002233"></path></svg>