<svg id="visual" viewBox="0 0 900 600" width="900" height="600" xmlns="http://www.w3.org/2000/svg" xmlns:xlink="http://www.w3.org/1999/xlink" version="1.1"><rect x="0" y="0" width="900" height="600" fill="#002233"></rect><path d="M729 600L735.2 585.7C741.3 571.3 753.7 542.7 757.7 514.2C761.7 485.7 757.3 457.3 738.5 428.8C719.7 400.3 686.3 371.7 678.2 343C670 314.3 687 285.7 694 257C701 228.3 698 199.7 705.8 171.2C713.7 142.7 732.3 114.3 726.5 85.8C720.7 57.3 690.3 28.7 675.2 14.3L660 0L900 0L900 14.3C900 28.7 900 57.3 900 85.8C900 114.3 900 142.7 900 171.2C900 199.7 900 228.3 900 257C900 285.7 900 314.3 900 343C900 371.7 900 400.3 900 428.8C900 457.3 900 485.7 900 514.2C900 542.7 900 571.3 900 585.7L900 600Z" fill="#0066FF" stroke-linecap="round" stroke-linejoin="miter"></path></svg>